Coordinates
version=1
nRows=25
nColumns=23
inDegrees=yes

Units are S.I. units (second, meters, Newtons, ...)
If the header above contains a line with 'inDegrees', this indicates whether rotational values are in degrees (yes) or radians (no).

endheader
time	pelvis_tilt	pelvis_list	pelvis_rotation	pelvis_tx	pelvis_ty	pelvis_tz	hip_flexion_r	hip_adduction_r	hip_rotation_r	knee_angle_r	knee_angle_r_beta	ankle_angle_r	subtalar_angle_r	mtp_angle_r	hip_flexion_l	hip_adduction_l	hip_rotation_l	knee_angle_l	knee_angle_l_beta	ankle_angle_l	subtalar_angle_l	mtp_angle_l
     15.00000000	      3.02475931	      3.62476997	      4.37666295	      1.99578832	      0.86765507	      0.98288200	    -18.80721527	     -4.12020754	    -15.14608703	     65.90270483	      1.15021919	    -15.47306810	    -19.11223301	      0.00000000	     23.56339055	      7.69686629	     -0.97978838	     22.63054142	      0.39497746	     -2.45140069	     -0.41318088	      0.00000000
     15.00666667	      3.03857912	      3.89044689	      5.20664670	      1.99506000	      0.86364412	      0.98182606	    -16.97946999	     -4.78127524	    -15.75414492	     70.66878383	      1.23340296	    -15.58229560	    -19.90842208	      0.00000000	     23.37494314	      8.27795249	     -1.00016059	     24.77953721	      0.43248451	     -1.84489487	     -2.03295852	      0.00000000
     15.01333333	      3.22366508	      4.20389543	      6.09936467	      1.99411725	      0.85956368	      0.98070451	    -15.33967081	     -5.55073015	    -16.47798782	     75.21764614	      1.31279558	    -15.64079099	    -20.63577465	      0.00000000	     22.95831450	      8.92855310	     -0.78519273	     27.13402546	      0.47357808	     -0.81203759	     -3.64764239	      0.00000000
     15.02000000	      3.37518123	      4.53635633	      7.02789730	      1.99296649	      0.85524827	      0.97951081	    -13.63380583	     -6.43608490	    -17.23954867	     79.59449978	      1.38918609	    -15.59819087	    -21.21258871	      0.00000000	     22.51706712	      9.64493056	     -0.30976788	     29.60597627	      0.51672176	      0.69356510	     -5.16526589	      0.00000000
     15.02666667	      3.47973450	      4.86223065	      7.96617855	      1.99154665	      0.85073995	      0.97830556	    -11.81900266	     -7.41087887	    -17.97310488	     83.79390442	      1.46247953	    -15.37279864	    -21.65693294	      0.00000000	     22.07949247	     10.36826961	      0.30031760	     32.15262663	      0.56116920	      2.54187477	     -6.47873337	      0.00000000
     15.03333333	      3.57869685	      5.18033621	      8.84059560	      1.98984121	      0.84626176	      0.97723588	     -9.89326130	     -8.45347895	    -18.55719271	     87.79700758	      1.53234686	    -14.98564476	    -21.94242428	      0.00000000	     21.57922182	     11.04313740	      0.94053846	     34.67056142	      0.60511545	      4.64478196	     -7.51497017	      0.00000000
     15.04000000	      3.74882319	      5.48345277	      9.64908710	      1.98787008	      0.84208644	      0.97627772	     -7.93650638	     -9.52741193	    -18.98458199	     91.52959027	      1.59749271	    -14.53580229	    -22.11485480	      0.00000000	     20.89649100	     11.64339120	      1.62117788	     37.06107917	      0.64683786	      6.97162516	     -8.17689780	      0.00000000
     15.04666667	      4.44875303	      5.78256029	     10.22819332	      1.98564761	      0.83898874	      0.97584696	     -6.40403133	    -10.45687657	    -19.10018298	     94.83806616	      1.65523651	    -14.15381455	    -22.40202888	      0.00000000	     19.47964073	     11.97764769	      2.17559935	     39.14681136	      0.68324075	      9.21695856	     -8.78007857	      0.00000000
     15.05333333	      3.82155096	      6.01697728	     10.86214855	      1.98315281	      0.83439583	      0.97515186	     -3.15091786	    -11.70521330	    -18.96406536	     98.31375043	      1.71589865	    -13.21467486	    -21.73941586	      0.00000000	     19.58783059	     12.42407837	      2.58311439	     41.37659272	      0.72215778	     11.73006312	     -8.36125341	      0.00000000
     15.06000000	      3.91707157	      6.24266158	     11.19916777	      1.98061541	      0.83144640	      0.97500749	     -0.52108531	    -12.71157853	    -18.47029375	    101.20172934	      1.76630339	    -12.54372864	    -21.29175023	      0.00000000	     18.64698993	     12.54685099	      2.87856723	     43.08556224	      0.75198492	     14.12989944	     -7.90530813	      0.00000000
     15.06666667	      4.01655005	      6.39567491	     11.35244311	      1.97803833	      0.82909475	      0.97519716	      2.32158608	    -13.53867393	    -17.64775743	    103.70817117	      1.81004905	    -11.87285417	    -20.63503985	      0.00000000	     17.55915888	     12.43673806	      3.00518298	     44.47699155	      0.77626994	     16.35971845	     -7.09731465	      0.00000000
     15.07333333	      4.12422708	      6.50027108	     11.35268388	      1.97554089	      0.82737798	      0.97555283	      5.31476012	    -14.21851331	    -16.56970335	    105.79874667	      1.84653647	    -11.22806359	    -19.81492355	      0.00000000	     16.27951956	     12.14232611	      2.97636782	     45.49846053	      0.79409794	     18.45166650	     -6.05735714	      0.00000000
     15.08000000	      4.68969333	      6.48473990	     11.47955101	      1.97315312	      0.82719090	      0.97574590	      7.72873158	    -14.52274017	    -15.66663534	    107.16564374	      1.87039333	    -10.97962645	    -19.37087108	      0.00000000	     14.16956330	     11.78650957	      3.59640616	     45.91795535	      0.80141951	     20.08517916	     -5.76928449	      0.00000000
     15.08666667	      4.35494169	      6.52999614	     11.04760510	      1.97081936	      0.82590738	      0.97658371	     11.55275338	    -15.00589344	    -13.99717149	    108.59712827	      1.89537745	    -10.03523211	    -17.92718117	      0.00000000	     13.13680624	     11.12338050	      2.62271479	     46.40024405	      0.80983703	     21.98974946	     -3.59264216	      0.00000000
     15.09333333	      4.71869832	      6.49500996	     10.81305386	      1.96880104	      0.82651320	      0.97697638	     14.30785854	    -15.14567518	    -12.73396229	    109.17334248	      1.90543428	     -9.59331989	    -17.06563207	      0.00000000	     10.89906799	     10.57348469	      2.62673517	     46.11542401	      0.80486598	     23.24677733	     -2.97444388	      0.00000000
     15.10000000	      4.78546088	      6.48385880	     10.45169020	      1.96698422	      0.82719844	      0.97748638	     17.40642351	    -15.21910420	    -11.30877177	    109.42781221	      1.90987562	     -8.88522832	    -15.94289158	      0.00000000	      8.83486126	      9.95408540	      2.12868193	     45.51315122	      0.79435434	     24.07026066	     -1.59198685	      0.00000000
     15.10666667	      4.79260030	      6.32631515	     10.20240559	      1.96545340	      0.82834872	      0.97768232	     20.35603394	    -15.08644964	    -10.14861027	    109.14744871	      1.90498235	     -8.37668335	    -15.15752737	      0.00000000	      6.70502148	      9.28638915	      1.84348319	     44.66478044	      0.77954748	     24.75671111	     -0.37089294	      0.00000000
     15.11333333	      4.77026287	      6.11945097	     10.01099160	      1.96413664	      0.83002280	      0.97770128	     23.11770896	    -14.87539175	     -9.20326350	    108.39205627	      1.89179826	     -7.93413392	    -14.61242285	      0.00000000	      4.44115747	      8.63163706	      1.66471085	     43.46060469	      0.75853065	     25.02532498	      0.54405231	      0.00000000
     15.12000000	      4.33570119	      5.71168237	     10.36945961	      1.96317683	      0.83165528	      0.97682998	     25.86593835	    -14.84963404	     -9.03591912	    107.15334108	      1.87017861	     -7.55750124	    -14.47162751	      0.00000000	      2.64014030	      7.94153855	      2.05107682	     42.29378169	      0.73816574	     25.35492442	      1.05177090	      0.00000000
     15.12666667	      4.89663600	      5.40844401	      9.90342958	      1.96258927	      0.83501192	      0.97712176	     27.52236959	    -14.10968451	     -8.23563709	    105.39791264	      1.83954060	     -7.17716396	    -14.42021786	      0.00000000	     -0.60178201	      7.03019581	      1.51807643	     40.27984600	      0.70301593	     24.65654294	      2.48612334	      0.00000000
     15.13333333	      4.18961646	      4.97523915	     10.16243425	      1.96204635	      0.83699973	      0.97633184	     30.22078637	    -13.89581623	     -8.10205461	    103.46593786	      1.80582128	     -6.77218620	    -14.50810874	      0.00000000	     -2.23607177	      6.39784080	      1.87213527	     38.70126844	      0.67546456	     24.18328296	      3.19240311	      0.00000000
     15.14000000	      4.80593480	      4.42088374	     10.17597865	      1.96217388	      0.84130050	      0.97583480	     30.98877877	    -13.22040715	     -8.28666076	    100.75058559	      1.75842944	     -6.76694467	    -15.41759422	      0.00000000	     -5.65196075	      5.31324202	      1.94500512	     36.25217940	      0.63271989	     22.55766291	      3.51266169	      0.00000000
     15.14666667	      4.44887836	      3.91172310	     10.27986513	      1.96236365	      0.84434678	      0.97527480	     32.76126284	    -12.75486805	     -8.38215605	     97.97851893	      1.71004775	     -6.70106583	    -16.28994190	      0.00000000	     -7.83745596	      4.48383766	      2.03250761	     34.09453592	      0.59506191	     20.90963906	      3.96295708	      0.00000000
     15.15333333	      4.42600383	      3.13469319	     10.66722689	      1.96291581	      0.84818408	      0.97430478	     33.70515380	    -12.17450262	     -9.09489092	     94.66945413	      1.65229368	     -6.68321573	    -17.19746058	      0.00000000	    -10.32965179	      3.28274573	      2.40817184	     31.82738084	      0.55549259	     18.84880406	      4.18266028	      0.00000000
     15.16000000	      4.20813091	      2.36086314	     10.99880384	      1.96370705	      0.85180923	      0.97346400	     34.69610535	    -11.59101200	     -9.78039540	     91.11807343	      1.59031039	     -6.69957295	    -18.01694420	      0.00000000	    -12.54209554	      2.09888524	      2.61101701	     29.57887400	      0.51624874	     16.45937915	      4.43508465	      0.00000000
